<svg width="165" height="70" viewBox="0 0 165 70" fill="none" xmlns="http://www.w3.org/2000/svg">
<g id="Logo" clip-path="url(#clip0_20_2)">
<g id="Group">
<path id="Vector" d="M22.816 70C10.2354 70 0 59.7646 0 47.1869C0 34.6092 10.2354 24.3708 22.816 24.3708C35.3967 24.3708 45.6321 34.6062 45.6321 47.1869C45.6321 59.7675 35.3967 70.0029 22.816 70.0029V70ZM22.816 31.6914C14.272 31.6914 7.32055 38.6429 7.32055 47.1869C7.32055 55.7309 14.272 62.6824 22.816 62.6824C31.3601 62.6824 38.3115 55.7309 38.3115 47.1869C38.3115 38.6429 31.3601 31.6914 22.816 31.6914Z" fill="#FFDE17"/>
<path id="Vector_2" d="M22.816 0C10.2354 0 0 10.2354 0 22.816C0 27.2944 1.29904 31.4763 3.53676 35.0014C4.9288 32.8044 6.68701 30.8602 8.72421 29.256C7.82331 27.2944 7.32055 25.1119 7.32055 22.816C7.32055 14.272 14.272 7.32055 22.816 7.32055C31.3601 7.32055 38.3086 14.272 38.3086 22.816C38.3086 25.1119 37.8059 27.2944 36.905 29.256C35.8704 31.5141 34.3069 33.4786 32.3772 35.0014C29.7414 37.0735 26.4226 38.3086 22.816 38.3086C19.2095 38.3086 15.8878 37.0706 13.252 35.0014C11.3223 36.5214 9.75879 38.4888 8.72421 40.744C12.6068 43.8041 17.5036 45.6292 22.816 45.6292C28.1285 45.6292 33.0253 43.8041 36.9079 40.744C38.9451 39.1398 40.7033 37.1985 42.0953 35.0014C44.333 31.4763 45.6321 27.2944 45.6321 22.816C45.6292 10.2354 35.3967 0 22.816 0Z" fill="#FFEF00"/>
</g>
<g id="Group_2">
<g id="Group_3">
<path id="Vector_3" d="M52.4005 45.2834H57.6373L61.2526 60.8486L65.1613 45.2834H70.619L74.4551 60.8108L78.0704 45.2834H83.0137L77.0387 65.7193H71.4676L67.742 51.4444L64.0163 65.7193H58.4104L52.3976 45.2834H52.4005Z" fill="#231F20"/>
<path id="Vector_4" d="M93.8245 44.9521C97.1084 44.9521 99.3577 46.501 100.575 48.1982V45.2834H105.777V65.7193H100.575V62.7318C99.3577 64.5016 97.0358 66.0506 93.7896 66.0506C88.6254 66.0506 84.4958 61.8076 84.4958 55.4287C84.4958 49.0497 88.6283 44.9521 93.8274 44.9521H93.8245ZM95.1526 49.4885C92.3859 49.4885 89.7675 51.5548 89.7675 55.4258C89.7675 59.2967 92.3859 61.5112 95.1526 61.5112C97.9192 61.5112 100.575 59.3723 100.575 55.4984C100.575 51.6245 97.9948 49.4856 95.1526 49.4856V49.4885Z" fill="#231F20"/>
<path id="Vector_5" d="M110.828 38.422H115.992V65.7164H110.828V38.422Z" fill="#231F20"/>
<path id="Vector_6" d="M121.081 38.422H126.245V65.7164H121.081V38.422Z" fill="#231F20"/>
<path id="Vector_7" d="M140.262 66.0506C134.324 66.0506 130.006 61.9181 130.006 55.5013C130.006 49.0846 134.211 44.9521 140.262 44.9521C146.312 44.9521 150.331 48.9712 150.331 55.0596C150.331 55.7222 150.294 56.3877 150.183 57.0503H135.246C135.504 60.0756 137.571 61.7728 140.151 61.7728C142.366 61.7728 143.58 60.6655 144.246 59.3025H149.817C148.71 63.066 145.318 66.0535 140.265 66.0535L140.262 66.0506ZM135.283 53.5833H144.984C144.911 50.8922 142.77 49.195 140.116 49.195C137.646 49.195 135.69 50.7818 135.283 53.5833Z" fill="#231F20"/>
<path id="Vector_8" d="M154.906 49.5263H152.47V45.2834H154.906V40.2296H160.108V45.2834H164.682V49.5263H160.108V59.4101C160.108 60.776 160.66 61.3659 162.284 61.3659H164.682V65.7193H161.436C157.527 65.7193 154.906 64.0599 154.906 59.3752V49.5263Z" fill="#231F20"/>
</g>
<g id="Group_4">
<path id="Vector_9" d="M52.8625 8.35803H58.0267V35.6524H52.8625V8.35803Z" fill="#231F20"/>
<path id="Vector_10" d="M62.5632 9.7588C62.5632 8.06162 63.8913 6.73352 65.7367 6.73352C67.5821 6.73352 68.9102 8.06162 68.9102 9.7588C68.9102 11.456 67.5443 12.7841 65.7367 12.7841C63.9291 12.7841 62.5632 11.456 62.5632 9.7588ZM63.1154 15.2165H68.2796V35.6524H63.1154V15.2194V15.2165Z" fill="#231F20"/>
<path id="Vector_11" d="M87.6838 24.3679C87.6838 21.084 85.8762 19.3142 83.1473 19.3142C80.4185 19.3142 78.5353 21.084 78.5353 24.3679V35.6553H73.3711V15.2194H78.5353V17.7652C79.8634 16.0302 82.075 14.9259 84.6963 14.9259C89.4536 14.9259 92.848 18.0238 92.848 23.6675V35.6553H87.6838V24.3679Z" fill="#231F20"/>
<path id="Vector_12" d="M97.7536 8.35803H102.918V23.8855L109.779 15.2165H116.492L107.492 25.4693L116.565 35.6495H109.852L102.918 26.9457V35.6495H97.7536V8.35803Z" fill="#231F20"/>
</g>
</g>
</g>
<defs>
<clipPath id="clip0_20_2">
<rect width="164.682" height="70" fill="white"/>
</clipPath>
</defs>
</svg>
